<svg width="60" height="60" viewBox="0 0 60 60" fill="none" xmlns="http://www.w3.org/2000/svg">
<path d="M60 34.1756C60 25.9798 56.6953 18.5424 51.3498 13.1225C51.3081 13.067 51.2636 13.0127 51.2131 12.9622C51.1625 12.9116 51.1084 12.8671 51.0529 12.8256C45.6331 7.48013 38.1956 4.17561 30 4.17561C21.8044 4.17561 14.367 7.48033 8.94689 12.8256C8.89141 12.8673 8.83731 12.9118 8.78675 12.9622C8.7362 13.0127 8.69174 13.0668 8.65003 13.1225C3.30472 18.5424 0 25.9798 0 34.1756C0 42.1879 3.1198 49.7201 8.78459 55.3863C8.78538 55.3871 8.78616 55.3881 8.78695 55.3889C8.78754 55.3892 8.78793 55.3898 8.78852 55.3902C8.78931 55.391 8.7901 55.3918 8.79089 55.3926C9.07889 55.6806 9.45639 55.8244 9.8339 55.8244C10.2116 55.8244 10.5893 55.6804 10.8773 55.3922C10.9019 55.3676 10.9241 55.3414 10.9466 55.3155L15.4932 50.7687C16.0694 50.1923 16.0694 49.2582 15.4932 48.682C14.917 48.106 13.9828 48.106 13.4068 48.682L9.85869 52.2301C5.72144 47.6262 3.32125 41.832 2.99115 35.651H8.00892C8.82374 35.651 9.48433 34.9906 9.48433 34.1756C9.48433 33.3606 8.82374 32.7002 8.00892 32.7002H2.99154C3.33462 26.3516 5.87705 20.5786 9.86833 16.1306L13.4068 19.669C13.6948 19.957 14.0725 20.101 14.45 20.101C14.8275 20.101 15.2052 19.957 15.4932 19.669C16.0694 19.0926 16.0694 18.1586 15.4932 17.5824L11.955 14.0437C16.4032 10.0525 22.176 7.51003 28.5246 7.16715V12.1847C28.5246 12.9997 29.1852 13.6601 30 13.6601C30.8148 13.6601 31.4754 12.9997 31.4754 12.1847V7.16715C37.824 7.51003 43.5968 10.0527 48.0451 14.0439L44.5066 17.5824C43.9304 18.1588 43.9304 19.0928 44.5066 19.669C44.7946 19.957 45.1723 20.101 45.5498 20.101C45.9273 20.101 46.305 19.957 46.5931 19.669L50.1315 16.1306C54.1228 20.5788 56.6654 26.3516 57.0083 32.7002H51.9907C51.1759 32.7002 50.5153 33.3606 50.5153 34.1756C50.5153 34.9906 51.1759 35.651 51.9907 35.651H57.0085C56.6784 41.832 54.2784 47.6264 50.1411 52.2303L46.5931 48.682C46.0171 48.106 45.0828 48.106 44.5066 48.682C43.9304 49.2584 43.9304 50.1925 44.5066 50.7687L49.1266 55.3887C49.4146 55.6767 49.7923 55.8207 50.1698 55.8207C50.3585 55.8207 50.5473 55.7847 50.725 55.7127C50.9026 55.6407 51.0691 55.5326 51.2132 55.3887C56.8794 49.7223 60 42.1887 60 34.1756Z" fill="#EF644C"/>
<path d="M36.7782 17.256C36.0215 16.9529 35.163 17.3203 34.86 18.0769L30.5965 28.7195C30.3978 28.6983 30.1991 28.6837 30.0002 28.6837C27.9236 28.6837 26.0479 29.834 25.1046 31.6855C24.1186 33.621 24.3712 35.9337 25.7798 37.8714C25.9238 38.0695 26.1047 38.2507 26.3042 38.3957C27.4485 39.2276 28.7266 39.6673 30.0002 39.6673C32.0768 39.6673 33.9527 38.517 34.8958 36.6655C35.8818 34.73 35.6292 32.4175 34.2217 30.4812C34.0777 30.2825 33.8963 30.1007 33.6962 29.9551C33.5886 29.8769 33.4786 29.8054 33.3687 29.7342L37.5992 19.174C37.9021 18.4178 37.5346 17.559 36.7782 17.256ZM32.2662 35.326C31.8293 36.1835 30.961 36.7163 30 36.7163C29.3697 36.7163 28.7353 36.4961 28.1137 36.0618C27.4055 35.0449 27.2664 33.9425 27.734 33.0248C28.1707 32.1673 29.039 31.6346 30.0002 31.6346C30.3067 31.6346 30.614 31.6877 30.9205 31.791C30.9305 31.7951 30.9398 31.8004 30.95 31.8045C30.9822 31.8173 31.0147 31.8277 31.0472 31.8382C31.3285 31.9462 31.6086 32.0949 31.8864 32.2889C32.5944 33.3057 32.7337 34.4083 32.2662 35.326Z" fill="#EF644C"/>
</svg>
