<svg width="60" height="60" viewBox="0 0 60 60" fill="none" xmlns="http://www.w3.org/2000/svg">
<g clip-path="url(#clip0_566_11964)">
<path d="M45.055 55.8984H32.4609V55.1953C32.4609 54.7098 32.0674 54.3164 31.582 54.3164H28.418C27.9326 54.3164 27.5391 54.7098 27.5391 55.1953V55.8984H6.44531V54.4336C6.44531 53.9481 6.0518 53.5547 5.56641 53.5547H4.10156V32.4609H4.80469C5.29008 32.4609 5.68359 32.0675 5.68359 31.582V28.418C5.68359 27.9325 5.29008 27.5391 4.80469 27.5391H4.10156V6.44531H5.56641C6.0518 6.44531 6.44531 6.05191 6.44531 5.56641V4.10156H11.3125C11.7979 4.10156 12.1914 3.70816 12.1914 3.22266C12.1914 2.73715 11.7979 2.34375 11.3125 2.34375H6.44531V0.878906C6.44531 0.393398 6.0518 0 5.56641 0H0.878906C0.393516 0 0 0.393398 0 0.878906V5.56641C0 6.05191 0.393516 6.44531 0.878906 6.44531H2.34375V27.5391H1.64063C1.15523 27.5391 0.761719 27.9325 0.761719 28.418V31.582C0.761719 32.0675 1.15523 32.4609 1.64063 32.4609H2.34375V53.5547H0.878906C0.393516 53.5547 0 53.9481 0 54.4336V59.1211C0 59.6066 0.393516 60 0.878906 60H5.56641C6.0518 60 6.44531 59.6066 6.44531 59.1211V57.6562H27.5391V58.3594C27.5391 58.8449 27.9326 59.2383 28.418 59.2383H31.582C32.0674 59.2383 32.4609 58.8449 32.4609 58.3594V57.6562H45.055C45.5404 57.6562 45.9339 57.2629 45.9339 56.7773C45.9339 56.2918 45.5404 55.8984 45.055 55.8984ZM1.75781 1.75781H4.6875V4.6875H1.75781V1.75781ZM2.51953 29.2969H3.92578V30.7031H2.51953V29.2969ZM4.6875 58.2422H1.75781V55.3125H4.6875V58.2422ZM30.7031 57.4805H29.2969V56.0742H30.7031V57.4805Z" fill="#EF644C"/>
<path d="M59.1211 6.44531C59.6065 6.44531 60 6.05191 60 5.56641V0.878906C60 0.393398 59.6065 0 59.1211 0H54.4336C53.9482 0 53.5547 0.393398 53.5547 0.878906V2.34375H32.4609V1.64062C32.4609 1.15512 32.0674 0.761719 31.582 0.761719H28.4179C27.9325 0.761719 27.539 1.15512 27.539 1.64062V2.34375H15.5383C15.0529 2.34375 14.6594 2.73715 14.6594 3.22266C14.6594 3.70816 15.0529 4.10156 15.5383 4.10156H27.539V4.80469C27.539 5.2902 27.9325 5.68359 28.4179 5.68359H31.582C32.0674 5.68359 32.4609 5.2902 32.4609 4.80469V4.10156H53.5547V5.56641C53.5547 6.05191 53.9482 6.44531 54.4336 6.44531H55.8984V27.5391H55.1953C54.7099 27.5391 54.3164 27.9325 54.3164 28.418V31.582C54.3164 32.0675 54.7099 32.4609 55.1953 32.4609H55.8984V53.5547H54.4336C53.9482 53.5547 53.5547 53.9481 53.5547 54.4336V55.8984H49.1632C48.6778 55.8984 48.2843 56.2918 48.2843 56.7773C48.2843 57.2629 48.6778 57.6562 49.1632 57.6562H53.5547V59.1211C53.5547 59.6066 53.9482 60 54.4336 60H59.1211C59.6065 60 60 59.6066 60 59.1211V54.4336C60 53.9481 59.6065 53.5547 59.1211 53.5547H57.6562V32.4609H58.3593C58.8447 32.4609 59.2383 32.0675 59.2383 31.582V28.418C59.2383 27.9325 58.8447 27.5391 58.3593 27.5391H57.6562V6.44531H59.1211ZM30.7031 3.92578H29.2968V2.51953H30.7031V3.92578ZM58.2422 58.2422H55.3125V55.3125H58.2422V58.2422ZM57.4804 30.7031H56.0742V29.2969H57.4804V30.7031ZM55.3125 1.75781H58.2422V4.6875H55.3125V1.75781Z" fill="#EF644C"/>
<path d="M9.29145 49.9448C9.56356 50.3286 10.0066 50.5578 10.4769 50.5578H20.5382C21.4993 50.5578 22.3711 49.9522 22.7077 49.0499L25.266 42.1659H34.7518L37.2823 49.0418C37.6143 49.9486 38.4874 50.558 39.4547 50.558H49.5231C49.9937 50.558 50.4369 50.329 50.7088 49.9453C50.9807 49.5618 51.05 49.0677 50.8942 48.624L37.6921 10.988C37.3662 10.0631 36.4888 9.44191 35.5089 9.44191C32.7533 9.44191 27.21 9.44191 24.4911 9.44191C23.5111 9.44191 22.6337 10.0634 22.3076 10.9893L9.10594 48.6238C8.9502 49.0673 9.01957 49.5613 9.29145 49.9448ZM23.9658 11.5721C24.0443 11.3494 24.2554 11.1996 24.491 11.1996H29.8066C29.9923 11.2077 30.1645 11.2807 30.3315 11.571L33.6441 21.0139C33.8047 21.4719 34.3063 21.7131 34.7644 21.5524C35.2225 21.3918 35.4635 20.8902 35.3029 20.4321L32.0641 11.1996H35.5088C35.7444 11.1996 35.9555 11.3493 36.0336 11.571L49.0929 48.8H45.2402C45.2276 48.7409 36.6656 24.3173 36.6656 24.3173C36.505 23.8593 36.0032 23.618 35.5453 23.7789C35.0872 23.9395 34.8462 24.4411 35.0068 24.8992L43.3908 48.8H39.4545C39.2218 48.8 39.0121 48.6543 38.9322 48.4361L36.1895 40.9835C36.0623 40.6378 35.7329 40.4081 35.3646 40.4081H18.953C18.5857 40.4081 18.2571 40.6365 18.1291 40.9809L17.4097 42.9169C17.2406 43.3719 17.4724 43.8777 17.9273 44.0469C18.3823 44.2161 18.8883 43.9842 19.0574 43.5292L19.564 42.166H23.3907L21.0604 48.4368C20.9793 48.6541 20.7694 48.8003 20.5382 48.8003H17.0985L17.6195 47.3984C17.7886 46.9434 17.5568 46.4375 17.1019 46.2683C16.6471 46.0992 16.1409 46.331 15.9718 46.786L15.3581 48.4372C15.3202 48.5394 15.2538 48.6273 15.1671 48.6912C15.0698 48.7624 14.9554 48.8003 14.8362 48.8003H10.9069L23.9658 11.5721Z" fill="#EF644C"/>
<path d="M20.866 36.3057H33.4733C33.7583 36.3057 34.0255 36.1676 34.1903 35.9352C34.355 35.7028 34.397 35.4049 34.3026 35.136L27.9791 17.1062C27.8555 16.7539 27.5229 16.5182 27.1496 16.5182C27.1494 16.5182 27.149 16.5182 27.1488 16.5182C26.7752 16.5185 26.4426 16.755 26.3197 17.1079L20.0361 35.1376C19.9425 35.4063 19.9848 35.7039 20.1496 35.9359C20.3144 36.1679 20.5814 36.3057 20.866 36.3057ZM27.8051 34.5479L30.0121 28.2141L32.2336 34.5479H27.8051ZM27.1522 20.0602L29.0782 25.5516L25.9435 34.5479H22.1031L27.1522 20.0602Z" fill="#EF644C"/>
</g>
<defs>
<clipPath id="clip0_566_11964">
<rect width="60" height="60" fill="white"/>
</clipPath>
</defs>
</svg>
