<svg width="60" height="60" viewBox="0 0 60 60" fill="none" xmlns="http://www.w3.org/2000/svg">
<g clip-path="url(#clip0_566_11969)">
<path d="M31.1811 54.2126C31.1811 54.8646 30.6508 55.3937 30 55.3937C29.3492 55.3937 28.8189 54.8646 28.8189 54.2126C28.8189 53.5618 29.3492 53.0315 30 53.0315C30.6508 53.0315 31.1811 53.5618 31.1811 54.2126ZM9.40465 25.1575C8.75232 25.1575 8.22354 25.6863 8.22354 26.3386C8.22354 26.9909 8.75232 27.5197 9.40465 27.5197H11.811V39.3307C11.811 39.983 12.3398 40.5118 12.9921 40.5118C13.6444 40.5118 14.1732 39.983 14.1732 39.3307V27.5197H16.5796C17.2319 27.5197 17.7607 26.9909 17.7607 26.3386C17.7607 25.6863 17.2319 25.1575 16.5796 25.1575H9.40465ZM50.315 15.9449C53.0503 15.9449 55.2756 18.1702 55.2756 20.9055C55.2756 23.6408 53.0503 25.8661 50.315 25.8661C47.5796 25.8661 45.3543 23.6408 45.3543 20.9055C45.3543 18.1702 47.5796 15.9449 50.315 15.9449ZM47.7165 20.9055C47.7165 22.3383 48.8822 23.5039 50.315 23.5039C51.7478 23.5039 52.9134 22.3383 52.9134 20.9055C52.9134 19.4727 51.7478 18.3071 50.315 18.3071C48.8822 18.3071 47.7165 19.4727 47.7165 20.9055ZM47.0079 55.3937H35.315C34.6381 55.3937 34.0915 54.8212 34.1365 54.1336C34.1776 53.5058 34.7274 53.0315 35.3564 53.0315H45.8268V50.6693H37.0866C35.1296 50.6693 33.5433 49.083 33.5433 47.126V44.0551C33.5433 42.0982 35.1296 40.5118 37.0866 40.5118H45.8268V35.5512H29.5276C28.8752 35.5512 28.3465 35.0224 28.3465 34.3701V12.4016C28.3465 11.7493 28.8752 11.2205 29.5276 11.2205H45.8268V8.14961C45.8268 7.49728 45.298 6.96851 44.6457 6.96851H15.3543C14.702 6.96851 14.1732 7.49728 14.1732 8.14961V19.8425H24.8032C25.4555 19.8425 25.9843 20.3713 25.9843 21.0236V44.6457C25.9843 45.298 25.4555 45.8268 24.8032 45.8268H14.1732V53.0315H24.6436C25.2726 53.0315 25.8224 53.5058 25.8635 54.1336C25.9085 54.8212 25.3619 55.3937 24.685 55.3937H12.9921C12.3398 55.3937 11.811 54.8649 11.811 54.2126V45.8268H1.1811C0.52878 45.8268 0 45.298 0 44.6457V21.0236C0 20.3713 0.52878 19.8425 1.1811 19.8425H11.811V8.14961C11.811 6.19264 13.3974 4.6063 15.3543 4.6063H44.6457C46.6026 4.6063 48.189 6.19264 48.189 8.14961V11.2205H58.8189C59.4712 11.2205 60 11.7493 60 12.4016V34.3701C60 35.0224 59.4712 35.5512 58.8189 35.5512H48.189V40.5118H51.2598C53.2168 40.5118 54.8032 42.0982 54.8032 44.0551V47.126C54.8032 49.083 53.2168 50.6693 51.2598 50.6693H48.189V54.2126C48.189 54.8649 47.6602 55.3937 47.0079 55.3937ZM23.622 22.2047H2.3622V43.4646H23.622V22.2047ZM51.2598 42.874H37.0866C36.4354 42.874 35.9055 43.4039 35.9055 44.0551V47.126C35.9055 47.7772 36.4354 48.3071 37.0866 48.3071H51.2598C51.9111 48.3071 52.4409 47.7772 52.4409 47.126V44.0551C52.4409 43.4039 51.9111 42.874 51.2598 42.874ZM30.7087 33.189H49.0033L38.0996 22.9964C36.7428 21.7282 34.6171 21.7279 33.2603 22.9964L30.7087 25.3818V33.189ZM57.6378 13.5827H30.7087V22.1482L31.6472 21.2708C33.9086 19.1569 37.4516 19.157 39.7128 21.2708L52.4626 33.189H57.6378V13.5827Z" fill="#EF644C"/>
</g>
<defs>
<clipPath id="clip0_566_11969">
<rect width="60" height="60" fill="white"/>
</clipPath>
</defs>
</svg>
