<svg width="86" height="86" viewBox="0 0 86 86" fill="none" xmlns="http://www.w3.org/2000/svg">
<path fill-rule="evenodd" clip-rule="evenodd" d="M27.932 0H28.1415H56.9989H57.4989V0.5V28.7367H85.5H86V29.2367V57.2639V57.4716L85.8528 57.6182L68.3959 75.0021L67.5431 75.8514V74.6478V47.1207H39.8982H39.3982V46.6207V18.7387H10.6845H9.49098L10.3282 17.888L27.7851 0.149288L27.932 0ZM28.3509 1L11.8781 17.7387H39.8982H40.3982V18.2387V46.1207H68.0431H68.5431V46.6207V73.4443L85 57.0562V29.7367H56.9989H56.4989V29.2367V1H28.3509ZM8.18785 28.5265L0.705605 35.9767L1.46329e-05 35.2681L7.48226 27.8179L8.18785 28.5265ZM0.705622 43.0722L15.3125 28.5265L14.6068 27.8179L0 42.3636L0.705622 43.0722ZM22.794 28.5265L0.705622 50.5225L-1.90735e-06 49.8139L22.0884 27.8179L22.794 28.5265ZM0.705622 57.9727L30.2755 28.5265L29.5699 27.8179L0 57.2641L0.705622 57.9727ZM30.6318 35.2673L0.705622 65.0683L0 64.3597L29.9262 34.5587L30.6318 35.2673ZM0.705622 72.1638L30.6318 42.3627L29.9262 41.6541L0 71.4552L0.705622 72.1638ZM30.6318 49.1033L0.705622 78.9043L0 78.1957L29.9262 48.3947L30.6318 49.1033ZM0.705622 86L30.6318 56.199L29.9262 55.4904L0 85.2914L0.705622 86ZM39.1822 56.199L9.25598 86L8.55035 85.2914L38.4765 55.4904L39.1822 56.199ZM17.4501 86L47.3763 56.199L46.6706 55.4904L16.7444 85.2914L17.4501 86ZM55.5703 56.199L25.6441 86L24.9385 85.2914L54.8647 55.4904L55.5703 56.199ZM34.1945 86.0001L59.133 61.1659L58.4274 60.4573L33.4889 85.2915L34.1945 86.0001ZM59.133 68.6158L41.676 85.9997L40.9704 85.2911L58.4273 67.9072L59.133 68.6158ZM49.87 85.9999L59.1337 76.7758L58.4281 76.0672L49.1644 85.2913L49.87 85.9999Z" fill="#151515"/>
</svg>
