<svg width="114" height="40" viewBox="0 0 114 40" fill="none" xmlns="http://www.w3.org/2000/svg">
<g clip-path="url(#clip0_566_11918)">
<path d="M34.5331 26.5647C32.1419 25.0719 30.9764 21.9382 31.5625 18.5806C32.2677 14.5592 35.206 12.1372 39.4392 12.0604C36.3648 4.94298 29.2844 -0.0397339 21.0372 -0.0397339C9.96949 -0.0397339 1 8.93165 1 19.9993C1 31.0684 9.96922 40.0395 21.0372 40.0395C29.3832 40.0395 36.5341 34.9372 39.548 27.6818C39.3213 27.698 39.0935 27.7097 38.8639 27.7097C37.2528 27.7094 35.7148 27.3029 34.5331 26.5647ZM15.052 24.8679C13.814 24.2588 12.9606 22.9874 12.9606 21.5149C12.9606 19.4513 16.6974 13.5957 16.6974 13.5957C16.6974 13.5957 16.9717 14.0247 17.369 14.6882C19.0055 17.7613 20.0226 20.342 20.0226 21.4262C20.0226 23.5287 18.4664 25.2409 16.5538 25.2409C16.0352 25.2409 15.5316 25.1122 15.055 24.863L15.052 24.8679ZM21.0472 29.4154C18.7045 29.4154 16.6698 28.1154 15.6111 26.1995C15.9195 26.2715 16.2341 26.3112 16.5535 26.3112C19.0564 26.3112 21.0921 24.1195 21.0921 21.4262C21.0921 19.6842 19.3277 16.1116 18.4353 14.415C19.8072 11.9582 21.0472 10.0142 21.0472 10.0142C21.0472 10.0142 27.2679 19.7583 27.2679 23.1941C27.2679 26.6293 24.4843 29.4154 21.0472 29.4154Z" fill="black"/>
<path d="M111.414 15.3055C110.745 14.725 110.582 14.3052 110.929 13.4618L111.528 11.982L108.684 11.979L108.382 13.0599C107.937 14.6493 107.01 15.9536 105.635 16.9136C105.29 17.1543 105.084 17.2341 104.845 16.7559C104.03 15.1208 102.596 14.3642 100.857 14.0664C99.0311 13.7553 94.7582 13.9087 94.7582 13.9087L94.6199 14.6328C94.3865 15.7469 93.8937 16.7172 92.868 17.3263C92.5704 17.5032 92.3394 17.6166 92.145 17.4443C92.0595 17.3683 91.98 17.2341 91.905 17.022C90.3892 12.7145 84.9004 12.6431 82.6126 14.7802C80.6072 16.6517 80.2515 19.0234 80.698 21.5731C80.9867 23.2182 81.7638 24.6093 83.2601 25.4868C87.1728 27.786 91.9145 25.3459 92.3411 20.823C92.3741 20.4689 92.2459 20.0386 92.7833 19.9074C93.4317 19.7497 93.9762 19.3542 94.6029 19.0164C94.8125 19.4078 94.7336 19.7272 94.7349 20.0337C94.7433 23.7989 94.7417 29.1739 94.7455 32.9386L97.6522 32.9442L97.6451 25.7651C97.6451 25.7651 98.0814 25.8555 98.3373 25.9201C99.6278 26.2566 100.924 26.1774 102.158 25.6921C104.496 24.7657 105.275 22.8003 105.432 20.4895C105.469 19.9593 105.584 19.6309 106.114 19.4043C107.081 18.9901 107.938 18.3612 108.577 17.5287C109.023 16.9458 109.354 17.1367 109.719 17.51C110.739 18.5579 110.908 19.8414 110.64 21.2082C110.285 23.0183 108.835 24.0232 107.047 23.7516L105.938 23.5847L105.942 25.9366L106.552 26.0919C108.789 26.6953 111.587 25.6385 112.745 23.6634C114.36 20.9093 113.846 17.4053 111.414 15.3055ZM89.1138 21.4535C88.8366 22.3193 88.4755 23.1159 87.6286 23.5539C86.2718 24.2534 84.6342 23.6161 84.0245 22.1495C83.7227 21.4164 83.5355 20.6482 83.5945 19.9607C83.5845 18.8122 83.7873 17.8359 84.3889 16.9739C84.998 16.0994 85.8715 15.8549 86.8809 15.972C87.8176 16.0791 88.3968 16.6604 88.8025 17.4659L89.0673 18.0921L88.4671 18.0959H87.6943V20.4673L88.4198 20.4719C88.5907 20.4719 89.3713 20.4719 89.3713 20.4719C89.3635 20.7042 89.1138 21.4535 89.1138 21.4535ZM102.267 21.0575C102.02 22.8014 100.163 24.427 98.1731 23.2915C97.7998 23.08 97.6378 23.1192 97.6416 22.6823V16.3377L98.3473 16.3323C99.7276 16.3531 101.045 16.4665 101.912 17.8021C101.478 18.1327 100.788 18.1668 100.788 18.1668L100.782 20.3732L101.663 20.3383C101.927 20.3272 102.353 20.3047 102.353 20.3047L102.267 21.0575Z" fill="black"/>
<path d="M73.9101 15.9236L73.9071 13.8616L71.084 13.853L71.0791 21.1124C71.0661 22.2582 70.1159 23.2255 69.078 23.2325C68.0956 23.2355 67.7107 22.6596 67.6974 21.1982C67.6974 20.9785 67.6974 20.7546 67.6974 20.5336V6.32278L63.4315 6.31873L63.4277 8.71663L64.4651 8.71284C64.857 8.76478 64.8026 9.22245 64.8067 9.50511C64.817 10.547 64.7715 11.5922 64.8237 12.6331C64.857 13.2887 64.5979 13.4345 64.006 13.4248C63.0217 13.4107 62.0507 13.5487 61.1186 13.8825C57.8205 15.0599 55.9911 18.6155 56.7804 22.265C57.1623 24.0345 57.9311 25.5469 59.788 26.063C61.9292 26.6559 63.8667 26.2777 65.2584 24.3364C66.4813 26.0905 67.6071 26.5212 69.381 26.0492C69.9815 25.8915 71.1081 25.3616 71.1081 25.3616L71.1051 26.1517L74.143 26.1533L74.1527 20.5076C74.1527 19.117 74.7445 17.8097 76.0042 16.9588C76.3055 16.7548 76.4998 16.6012 76.8211 16.7045C77.2114 16.8333 77.1649 17.5338 77.1649 17.5338L77.1665 18.5108L79.6434 18.5079V14.3712L79.6469 13.527L78.8368 13.5341C76.8625 13.5108 73.9101 15.9236 73.9101 15.9236ZM64.6466 21.423C64.2465 22.6824 63.071 23.5117 61.7767 23.4102C60.616 23.321 59.9149 22.5168 59.7415 21.0716C59.4726 18.8692 60.3844 17.0207 62.0883 16.2322C62.8145 15.8984 63.5605 15.9577 64.3168 15.9777C64.7434 15.9888 64.8183 16.2604 64.8154 16.6163C64.8056 17.279 64.8116 17.9406 64.8116 18.7859C64.7618 19.5433 64.9436 20.4908 64.6466 21.423Z" fill="black"/>
<path d="M52.2838 14.0883C50.1723 13.0926 48.0276 13.1151 46.0652 14.4407C43.9729 15.8508 43.3427 18.0353 43.498 20.4102C43.5293 20.8884 43.6727 21.5392 43.6727 21.5392C43.6727 21.5392 42.9421 22.2709 42.6413 22.5647C41.8872 23.2958 40.9618 23.6753 39.9361 23.7935C38.0335 24.0102 36.5047 23.0643 36.0232 21.3983C35.4438 19.3915 36.3018 17.0761 37.911 16.3014C38.2491 16.1402 38.601 16.0472 38.9762 16.0074C38.9656 16.0074 38.9567 16.0074 38.9537 16.0074C38.9589 16.0074 38.9727 16.0061 38.9989 16.0028C38.9919 16.0042 38.9821 16.0058 38.9762 16.0074C39.1425 16.0061 40.0365 16.0439 40.0365 16.9879L40.0465 18.177L42.5615 18.1808V13.6961C42.5615 13.6961 41.6297 13.5787 40.6348 13.4932C36.8044 13.1659 33.6891 14.7799 32.9815 18.8292C32.4976 21.5947 33.413 24.2055 35.3172 25.3943C37.8112 26.9537 41.9578 26.513 44.0414 24.4394C44.2405 24.2422 44.5321 23.9769 44.5321 23.9769C44.5321 23.9769 44.7782 24.2244 44.9546 24.4221C46.779 26.4435 49.9338 26.9209 52.33 25.6082C54.5581 24.3856 55.732 21.5425 55.2454 18.543C54.9308 16.6093 54.1356 14.9625 52.2838 14.0883ZM51.7195 22.3499C51.2989 23.295 50.5294 23.8127 49.4893 23.8319C48.4255 23.849 47.5902 23.404 47.1253 22.4148C46.3062 20.6842 46.2943 18.939 47.1926 17.2387C47.6627 16.3469 48.3679 15.9863 49.3546 15.9793C50.4707 15.9117 51.2513 16.4472 51.7028 17.4072C52.4739 19.0375 52.4507 20.7069 51.7195 22.3499Z" fill="black"/>
</g>
<defs>
<clipPath id="clip0_566_11918">
<rect width="112.676" height="40" fill="white" transform="translate(0.600098)"/>
</clipPath>
</defs>
</svg>
